<svg version="1.1" xmlns="http://www.w3.org/2000/svg" xmlns:xlink="http://www.w3.org/1999/xlink" x="0px" y="0px" viewBox="0 0 1000 1000" enable-background="new 0 0 1000 1000" xml:space="preserve">
<g><path d="M720.4,917.5l3.6-3.6h-6.8L720.4,917.5z"/><path d="M735,913.9v-11l-11,11H735z"/><path d="M809.8,527.9v-443c0-41.1-33.4-74.8-74.8-74.8H116.7c-41.1,0-74.8,33.4-74.8,74.8v830.4c0,41.1,33.4,74.8,74.8,74.8H735c14.3,0,27.5-3.9,38.9-10.7C879.4,955,958.1,860.8,958.1,748.1C957.8,648.3,896.6,563.2,809.8,527.9z M118,915.2l-1.3-829.1h617l0.6,424.9c-4.5-0.3-9.1-0.3-13.9-0.3C589.2,510.7,483,616.9,483,748.1c0,64.8,25.9,123.7,68.3,166.5L118,915.2z M809.8,828.1L735,902.9v11h-11l-3.2,3.2l-3.2-3.2L550.7,747.1l33.4-33.4l110.1,110.1V578.4H735h13v245.5l62.2-62.2l47.9-47.9l33.4,33.4L809.8,828.1z"/><path d="M204.2,216.3h443v57.3h-443V216.3z"/><path d="M204.2,365.9h443v57.3h-443V365.9z"/><path d="M204.2,515.2h278.2v57.3H204.2V515.2z"/></g>
</svg>